<?xml version="1.0" standalone="no"?>
<!DOCTYPE svg PUBLIC "-//W3C//DTD SVG 20010904//EN"
 "http://www.w3.org/TR/2001/REC-SVG-20010904/DTD/svg10.dtd">
<svg version="1.0" xmlns="http://www.w3.org/2000/svg"
 width="2214.000000pt" height="1386.000000pt" viewBox="0 0 2214.000000 1386.000000"
 preserveAspectRatio="xMidYMid meet">

<g transform="translate(0.000000,1386.000000) scale(0.100000,-0.100000)"
fill="#000000" stroke="none">
<path d="M7705 12529 c-591 -34 -1153 -190 -1639 -455 -690 -377 -1213 -876
-1612 -1539 -175 -291 -308 -584 -424 -935 -390 -1177 -292 -2428 280 -3570
350 -701 879 -1307 1505 -1727 524 -350 1031 -548 1609 -628 1115 -153 2399
223 3246 950 334 287 550 564 727 932 40 84 73 159 73 166 0 9 -17 12 -70 9
-94 -6 -255 14 -357 44 -307 89 -533 315 -623 625 l-22 76 -170 97 c-98 56
-179 96 -191 94 -22 -3 -17 9 -222 -558 -58 -162 -110 -305 -115 -317 l-10
-23 -267 0 -268 0 -52 -35 c-139 -94 -359 -193 -538 -244 -395 -111 -810 -106
-1180 16 -122 41 -331 143 -441 216 l-71 48 -431 -1 -432 0 0 220 0 220 110 0
110 0 0 120 0 120 -40 65 c-187 305 -325 705 -393 1135 -29 187 -32 710 -4
895 147 978 597 1685 1293 2033 650 325 1586 223 2154 -235 219 -176 406 -425
517 -688 l22 -51 110 -32 c60 -18 114 -32 120 -32 21 0 91 52 84 63 -3 6 -1 7
5 3 6 -4 107 59 224 140 117 81 285 197 373 258 88 61 277 191 420 289 143 98
261 184 263 192 4 17 -117 256 -194 385 -322 537 -816 986 -1413 1285 -580
290 -1288 418 -2066 374z"/>
<path d="M12922 12406 l-82 -83 0 -2376 0 -2375 42 -7 c75 -12 141 -50 169
-97 22 -40 24 -53 24 -175 0 -72 1 -131 2 -130 0 1 21 41 46 89 79 155 183
251 334 310 82 32 234 50 247 30 4 -6 8 -142 9 -301 l2 -290 -85 5 c-161 11
-299 -36 -391 -133 -101 -107 -131 -214 -133 -473 l-1 -185 123 -3 122 -3 -2
-217 -3 -217 -253 -3 -252 -2 0 -947 0 -946 82 -83 82 -84 821 0 820 0 78 78
77 77 2 953 3 952 -477 0 -478 0 0 210 c0 116 -1 213 -2 218 -2 4 51 9 117 12
l120 5 3 431 c3 524 14 484 -138 484 l-99 0 -3 216 c-2 119 -1 218 1 220 2 2
138 4 301 4 380 0 427 -10 482 -105 21 -36 23 -52 23 -172 0 -72 1 -130 3
-129 1 2 20 39 41 82 98 203 287 336 496 351 62 4 84 3 90 -7 5 -8 7 -94 6
-192 l-3 -178 1361 0 1360 0 81 81 80 81 0 662 0 661 -83 83 -82 82 -1603 0
-1602 0 0 930 0 930 1943 0 1942 0 83 83 82 82 0 714 0 713 -82 84 -82 84
-2841 0 -2841 0 -82 -84z m3019 -3999 c76 -37 146 -109 183 -187 28 -59 31
-74 31 -165 0 -91 -3 -106 -31 -165 -37 -79 -107 -150 -183 -188 -50 -24 -67
-27 -161 -27 -102 0 -107 1 -170 36 -203 112 -264 387 -128 576 44 61 92 98
164 129 51 21 71 24 150 21 73 -2 100 -8 145 -30z"/>
<path d="M15671 8303 c-90 -44 -139 -130 -140 -244 -2 -165 100 -279 250 -279
113 1 199 61 239 167 28 73 24 177 -8 239 -67 131 -213 181 -341 117z m233
-92 c48 -46 51 -118 6 -166 l-21 -23 35 -71 c20 -39 36 -73 36 -76 0 -3 -27
-5 -61 -3 l-61 3 -25 63 c-14 34 -31 62 -39 62 -9 0 -14 -18 -16 -62 l-3 -63
-49 -3 c-27 -2 -52 1 -55 6 -3 6 -5 90 -3 187 l3 177 114 -4 c104 -3 116 -5
139 -27z"/>
<path d="M15760 8122 c0 -46 3 -51 35 -44 49 9 44 82 -6 82 -27 0 -29 -3 -29
-38z"/>
<path d="M14765 6807 c-61 -105 -85 -235 -85 -469 l0 -128 60 0 60 0 0 298 c0
163 3 307 6 320 10 37 -13 25 -41 -21z"/>
<path d="M13090 2640 l0 -140 130 0 130 0 0 140 0 140 -130 0 -130 0 0 -140z"/>
<path d="M3044 2726 c-128 -29 -253 -97 -356 -194 -123 -116 -189 -227 -245
-409 -23 -77 -26 -105 -27 -228 0 -164 19 -255 84 -392 83 -177 198 -304 365
-401 257 -149 615 -112 863 89 58 47 162 178 162 203 0 7 -48 39 -107 72
l-108 61 -27 -47 c-34 -60 -132 -150 -194 -180 -116 -54 -260 -66 -376 -30
-243 75 -412 354 -395 650 11 185 68 321 182 436 84 85 167 129 273 145 97 14
218 -2 302 -42 70 -33 158 -112 195 -176 l26 -44 37 23 c20 12 67 43 104 69
l67 46 -36 54 c-84 127 -216 229 -357 276 -70 22 -101 27 -226 29 -98 2 -165
-1 -206 -10z"/>
<path d="M11690 1875 l0 -855 130 0 130 0 0 370 0 370 365 0 365 0 0 110 0
110 -365 0 -365 0 0 260 0 260 435 0 435 0 0 115 0 115 -565 0 -565 0 0 -855z"/>
<path d="M7020 2490 l0 -210 -85 0 -85 0 0 -100 0 -100 85 0 85 0 0 -425 c0
-458 2 -480 55 -550 33 -44 116 -86 189 -95 107 -13 257 15 358 66 l27 14 -26
92 c-14 51 -27 96 -29 100 -3 4 -25 -2 -49 -12 -101 -43 -192 -35 -240 21
l-25 31 0 379 0 379 135 0 135 0 0 100 0 100 -135 0 -135 0 0 210 0 210 -130
0 -130 0 0 -210z"/>
<path d="M13790 2490 l0 -210 -85 0 -85 0 0 -100 0 -100 85 0 84 0 3 -443 3
-443 25 -49 c29 -56 95 -107 163 -126 73 -21 202 -14 297 16 47 15 97 33 112
41 l26 14 -25 97 c-15 54 -27 99 -28 101 -1 1 -23 -6 -49 -17 -71 -31 -138
-37 -191 -16 -76 29 -75 22 -75 450 l0 375 135 0 135 0 0 100 0 100 -135 0
-135 0 0 210 0 210 -130 0 -130 0 0 -210z"/>
<path d="M6026 2300 c-125 -23 -214 -68 -286 -146 -59 -65 -82 -123 -88 -226
-4 -81 -2 -92 23 -144 47 -95 148 -146 445 -223 214 -55 271 -84 291 -151 70
-234 -330 -296 -651 -101 -75 46 -64 51 -132 -62 -48 -80 -51 -74 57 -129 242
-124 572 -146 769 -53 156 74 240 236 207 397 -30 143 -131 207 -466 293 -99
26 -201 58 -227 72 -105 57 -105 189 -1 259 69 46 205 53 332 18 60 -17 186
-77 196 -94 14 -22 34 -7 83 64 l52 75 -30 21 c-48 34 -190 96 -260 114 -78
20 -246 28 -314 16z"/>
<path d="M8285 2295 c-38 -8 -108 -33 -155 -56 -159 -79 -279 -229 -327 -409
-23 -88 -23 -263 0 -349 62 -228 232 -398 457 -456 85 -22 255 -22 340 0 310
80 506 379 469 712 -30 266 -210 480 -460 549 -80 22 -241 26 -324 9z m290
-239 c211 -96 297 -384 183 -615 -130 -267 -474 -290 -638 -43 -85 129 -94
327 -20 472 51 101 141 179 239 207 66 19 170 10 236 -21z"/>
<path d="M9955 2299 c-119 -24 -267 -123 -325 -218 -14 -22 -28 -41 -32 -41
-5 0 -8 56 -8 125 l0 125 -115 0 -115 0 0 -630 0 -630 130 0 130 0 0 383 0
384 30 60 c38 75 112 154 178 187 126 64 266 34 319 -68 39 -76 43 -118 43
-538 l0 -408 130 0 129 0 3 383 3 382 28 57 c99 202 324 289 453 176 87 -76
94 -123 94 -603 l0 -395 130 0 130 0 0 424 c0 459 -7 543 -54 649 -74 167
-242 240 -444 192 -130 -31 -240 -107 -318 -221 l-38 -55 -12 40 c-29 99 -115
195 -202 226 -57 20 -199 28 -267 14z"/>
<path d="M15265 2295 c-138 -28 -295 -130 -353 -227 -9 -15 -20 -28 -24 -28
-4 0 -8 56 -8 125 l0 125 -115 0 -115 0 0 -630 0 -630 130 0 130 0 0 381 0
381 32 60 c42 79 142 170 217 199 31 11 82 23 113 26 48 5 66 2 111 -20 60
-30 87 -61 113 -133 17 -44 19 -93 22 -471 l3 -423 130 0 129 0 0 418 c0 229
-5 451 -10 492 -22 169 -83 273 -192 329 -57 29 -77 34 -154 37 -53 2 -118 -3
-159 -11z"/>
<path d="M16579 2296 c-187 -40 -333 -141 -423 -295 -43 -75 -62 -123 -80
-214 -46 -222 23 -450 184 -607 59 -58 182 -129 258 -150 238 -63 516 3 663
157 41 43 89 112 89 128 0 6 -48 24 -106 40 -104 28 -106 28 -117 9 -20 -37
-109 -115 -153 -134 -155 -67 -325 -37 -438 77 -54 55 -103 150 -112 217 l-7
46 506 0 506 0 7 36 c9 46 -2 161 -22 239 -33 127 -121 257 -234 343 -38 30
-139 78 -200 96 -76 23 -239 29 -321 12z m254 -196 c117 -36 205 -125 246
-248 38 -113 78 -102 -364 -102 -441 0 -402 -11 -365 101 26 76 56 124 108
171 49 44 71 56 142 79 73 24 154 23 233 -1z"/>
<path d="M17937 2294 c-38 -8 -93 -26 -123 -39 -71 -32 -157 -114 -191 -184
-25 -50 -28 -67 -28 -156 0 -88 3 -105 25 -143 49 -86 144 -130 480 -222 202
-55 260 -95 260 -178 0 -185 -296 -240 -575 -107 -38 18 -89 45 -112 59 l-42
26 -52 -86 c-60 -99 -62 -91 41 -144 148 -75 307 -112 479 -111 241 0 398 76
473 229 30 60 33 76 33 152 0 203 -89 268 -508 376 -218 56 -267 90 -267 184
0 72 49 134 127 161 55 19 206 16 277 -5 55 -16 167 -69 208 -98 20 -14 20
-13 88 84 l40 57 -28 19 c-159 114 -414 167 -605 126z"/>
<path d="M19226 2300 c-125 -23 -214 -68 -286 -146 -59 -65 -82 -123 -88 -226
-4 -81 -2 -92 23 -144 47 -95 148 -146 445 -223 214 -55 271 -84 291 -151 70
-234 -330 -296 -651 -101 -75 46 -64 51 -132 -62 -48 -80 -51 -74 57 -129 242
-124 572 -146 769 -53 156 74 240 236 207 397 -30 143 -131 207 -466 293 -99
26 -201 58 -227 72 -105 57 -105 189 -1 259 69 46 205 53 332 18 60 -17 186
-77 196 -94 14 -22 34 -7 83 64 l52 75 -30 21 c-48 34 -190 96 -260 114 -78
20 -246 28 -314 16z"/>
<path d="M4153 1813 c3 -410 6 -475 21 -528 54 -184 163 -273 345 -282 205
-11 409 83 517 238 l29 42 6 -85 c4 -66 11 -93 28 -117 40 -56 109 -77 211
-65 l61 7 -3 111 c-3 106 -4 111 -25 114 -53 8 -53 7 -53 539 l0 493 -130 0
-130 0 0 -392 c0 -450 4 -430 -97 -539 -124 -134 -323 -170 -429 -77 -87 76
-94 123 -94 608 l0 400 -131 0 -130 0 4 -467z"/>
<path d="M13090 1650 l0 -630 130 0 130 0 0 630 0 630 -130 0 -130 0 0 -630z"/>
</g>
</svg>
